<?xml version="1.0" encoding="UTF-8"?>
<svg id="Calque_1" data-name="Calque 1" xmlns="http://www.w3.org/2000/svg" viewBox="0 0 64.98 62.01">
  <defs>
    <style>
      .cls-1 {
        fill: #fff;
      }

      .cls-2 {
        fill: none;
      }
    </style>
  </defs>
  <g>
    <circle class="cls-2" cx="32.49" cy="31.01" r="13.27"/>
    <path class="cls-1" d="m53.09,0H11.9C5.33,0,0,5.33,0,11.9v38.21c0,6.57,5.33,11.9,11.9,11.9h41.19c6.57,0,11.89-5.33,11.89-11.9V11.9c0-6.57-5.32-11.9-11.89-11.9Zm-20.6,44.28c-7.33,0-13.27-5.94-13.27-13.27s5.94-13.27,13.27-13.27,13.27,5.94,13.27,13.27-5.94,13.27-13.27,13.27Zm15.8-24.43c-2.56,0-4.64-2.08-4.64-4.65s2.08-4.64,4.64-4.64,4.65,2.08,4.65,4.64-2.08,4.65-4.65,4.65Z"/>
  </g>
  <circle class="cls-1" cx="32.49" cy="31.01" r="8.93"/>
</svg>