<?xml version="1.0" encoding="UTF-8"?>
<svg id="Calque_1" data-name="Calque 1" xmlns="http://www.w3.org/2000/svg" viewBox="0 0 100 100">
  <defs>
    <style>
      .cls-1 {
        fill: #fff;
      }
    </style>
  </defs>
  <path class="cls-1" d="m95.1,0H4.9C2.19,0,0,2.19,0,4.9v90.2c0,2.71,2.19,4.9,4.9,4.9h90.2c2.71,0,4.9-2.19,4.9-4.9V4.9c0-2.71-2.19-4.9-4.9-4.9Zm-62.66,84.84c0,1.19-.96,2.15-2.15,2.15h-11.76c-1.19,0-2.15-.96-2.15-2.15v-46.39c0-1.18.96-2.15,2.15-2.15h11.76c1.19,0,2.15.97,2.15,2.15v46.39Zm-8.03-50.41c-5.91,0-10.71-4.8-10.71-10.71s4.8-10.71,10.71-10.71,10.71,4.8,10.71,10.71-4.79,10.71-10.71,10.71Zm61.89,48.72c0,2.12-1.72,3.84-3.84,3.84h-8.7c-2.12,0-3.83-1.71-3.84-3.82l-.08-24.36s-1.48-8.77-6.83-8.9c-2.54-.06-6.77,2.55-8.97,4.84v29.43c0,1.55-1.26,2.81-2.81,2.81h-9.87c-1.55,0-2.8-1.26-2.8-2.81v-45.07c0-1.55,1.25-2.81,2.8-2.81h9.87c1.55,0,2.81,1.26,2.81,2.81v1.78c1.7-2.1,5.42-4.59,13.52-4.59,18.4,0,18.06,11.82,18.64,14.09.07.26.1.53.1.81v31.95Z"/>
</svg>