<svg id="Calque_1" data-name="Calque 1" xmlns="http://www.w3.org/2000/svg" viewBox="0 0 117.99 58.24"><defs><style>.cls-1{fill:none;stroke:#706fad;stroke-miterlimit:10;}.cls-2,.cls-3{fill:#706fad;}.cls-3{font-size:13.91px;font-family:SegoeScript, Segoe Script;}.cls-4{letter-spacing:-0.02em;}.cls-5{letter-spacing:-0.04em;}</style></defs><path class="cls-1" d="M93.91,52.64a1.56,1.56,0,0,1-1-2.26c2.75-5.14,11.38-19.8,21-21.6,10-1.87,9.84,22.33,9.59,29.46a1.58,1.58,0,0,1-2,1.47Z" transform="translate(-21.96 -28.18)"/><path class="cls-2" d="M96,53s8.85-17.57,17.16-19.13,5.16,24.84,5.16,24.84Z" transform="translate(-21.96 -28.18)"/><path class="cls-1" d="M72.22,52.58a1.39,1.39,0,0,0,.89-2c-2.63-4.93-11.36-20-21.11-21.81-10.09-1.89-9.84,22.89-9.58,29.7a1.39,1.39,0,0,0,1.73,1.29Z" transform="translate(-21.96 -28.18)"/><path class="cls-2" d="M69.89,53S61,35.45,52.73,33.89s-5.16,24.84-5.16,24.84Z" transform="translate(-21.96 -28.18)"/><text class="cls-3" transform="translate(29.24 51.35)">EDU<tspan class="cls-4" x="32.58" y="0">C</tspan><tspan class="cls-5" x="41.94" y="0">A</tspan><tspan x="53.02" y="0">T</tspan></text><path class="cls-2" d="M118.66,70.47a24.44,24.44,0,0,1,10.64-4.13,1,1,0,0,0,1-1c0-.48-.46-1.07-1-1a26.51,26.51,0,0,0-11.65,4.4c-1.06.72-.06,2.46,1,1.73Z" transform="translate(-21.96 -28.18)"/><path class="cls-2" d="M119.42,76.64C124,73.66,129.77,74,135,74.4c1.28.09,1.28-1.91,0-2-5.6-.4-11.69-.66-16.6,2.51-1.08.7-.08,2.43,1,1.73Z" transform="translate(-21.96 -28.18)"/><path class="cls-2" d="M121.22,81.32a23.34,23.34,0,0,1,17.51-.72c1.22.43,1.74-1.5.54-1.93a25.38,25.38,0,0,0-19.06.92c-1.16.54-.15,2.26,1,1.73Z" transform="translate(-21.96 -28.18)"/><path class="cls-2" d="M49.85,67.62a47.12,47.12,0,0,0-16,.2c-1.26.23-.73,2.16.53,1.93a44.23,44.23,0,0,1,14.92-.2c1.26.2,1.8-1.73.53-1.93Z" transform="translate(-21.96 -28.18)"/><path class="cls-2" d="M45.84,74a41.55,41.55,0,0,0-23.16-1.57c-1.26.27-.73,2.2.53,1.92A39.74,39.74,0,0,1,45.31,76c1.21.44,1.73-1.49.53-1.93Z" transform="translate(-21.96 -28.18)"/><path class="cls-2" d="M44.37,78.14a13.7,13.7,0,0,0-9.07-1.49,1,1,0,0,0-.7,1.23,1,1,0,0,0,1.23.7,11.48,11.48,0,0,1,7.53,1.29,1,1,0,0,0,1-1.73Z" transform="translate(-21.96 -28.18)"/></svg>