<?xml version="1.0" encoding="UTF-8"?>
<svg id="Calque_1" data-name="Calque 1" xmlns="http://www.w3.org/2000/svg" viewBox="0 0 97.13 73.76">
  <defs>
    <style>
      .cls-1 {
        fill: #fff;
      }
    </style>
  </defs>
  <polygon class="cls-1" points="0 15.39 35.03 35.57 0 59.82 0 15.39"/>
  <path class="cls-1" d="m97.13,65.71v3.5c0,2.51-2.04,4.55-4.53,4.55H4.53c-2.5,0-4.53-2.04-4.53-4.55v-4.25l39.09-27.06,1.41.81s.06.04.1.04h.01c.36.32.82.51,1.34.51l12.17.07c.47,0,.91-.15,1.26-.42h.01s.02-.01.05-.03l1.6-.92,40.09,27.75Z"/>
  <path class="cls-1" d="m97.13,4.55v5.47l-43.58,25.1h-.01l-10.94-.07h-.01L0,10.52v-5.97C0,2.04,2.04,0,4.53,0h88.06c2.5,0,4.53,2.04,4.53,4.55Z"/>
  <polygon class="cls-1" points="61.09 35.64 97.13 14.89 97.13 60.58 61.09 35.64"/>
</svg>